# Made in Blockbench 4.10.3
mtllib cylinder.mtl

o cylinder
v 0 0 0
v 0 1 0
v 0.13397459621556132 0 0.49999999999999994
v 0.13397459621556132 1 0.49999999999999994
v 0.3660254037844386 0 0.36602540378443865
v 0.3660254037844386 1 0.36602540378443865
v 0.49999999999999994 0 0.13397459621556132
v 0.49999999999999994 1 0.13397459621556132
v 0.49999999999999994 0 -0.13397459621556138
v 0.49999999999999994 1 -0.13397459621556138
v 0.36602540378443865 0 -0.3660254037844386
v 0.36602540378443865 1 -0.3660254037844386
v 0.1339745962155615 0 -0.4999999999999999
v 0.1339745962155615 1 -0.4999999999999999
v -0.13397459621556113 0 -0.5
v -0.13397459621556113 1 -0.5
v -0.3660254037844386 0 -0.3660254037844387
v -0.3660254037844386 1 -0.3660254037844387
v -0.49999999999999994 0 -0.13397459621556126
v -0.49999999999999994 1 -0.13397459621556126
v -0.5 0 0.1339745962155611
v -0.5 1 0.1339745962155611
v -0.3660254037844387 0 0.36602540378443854
v -0.3660254037844387 1 0.36602540378443854
v -0.1339745962155613 0 0.49999999999999994
v -0.1339745962155613 1 0.49999999999999994
vt 0.2418562691676121 0.17109375000000004
vt 0.24672552160274136 0.22444375958380658
vt 0.1328125 0.171875
vt 0.015625 0.3359375
vt 0.08826250000000002 0.3359375
vt 0.08826250000000002 0.6640625
vt 0.015625 0.6640625
vt 0.15524407818809272 0.6682993052877088
vt 0.2109375 0.7142125634363666
vt 0.12399407818809283 0.84375
vt 0.23873194471229137 0.12555657818809163
vt 0.24203743656363347 0.16953125000000002
vt 0.1328125 0.17086907818809283
vt 0.15625 0.3359375
vt 0.22888750000000002 0.3359375
vt 0.22107500000000002 0.6640625
vt 0.15625 0.6640625
vt 0.21305624041619395 0.724549980832388
vt 0.25625 0.7954619783972586
vt 0.12399374041619393 0.84375
vt 0.20546874999999973 0.0843749999999992
vt 0.23203124999999988 0.12341874999999924
vt 0.1328125 0.17303750000000007
vt 0.2265625 0.3359375
vt 0.2992 0.3359375
vt 0.2992 0.6640625
vt 0.2265625 0.6640625
vt 0.25 0.79455
vt 0.25 0.875
vt 0.125 0.8425875
vt 0.1640625 0.0234375
vt 0.20413125958380607 0.078125
vt 0.1328125 0.17388751916761214
vt 0.296875 0.3359375
vt 0.3695125 0.3359375
vt 0.3695125 0.6640625
vt 0.296875 0.6640625
vt 0.25 0.8739940781880927
vt 0.23533674185134212 0.9453125
vt 0.12298680528770867 0.8427440781880928
vt 0.078125 0.0234375
vt 0.16506842181190728 0.022475758148657876
vt 0.1328125000000001 0.17388819471229133
vt 0.34375 0.3359375
vt 0.4320125 0.3359375
vt 0.4320125 0.6640625
vt 0.34375 0.6640625
vt 0.22857501916761214 0.9443062404161939
vt 0.1670380216027414 0.9921875
vt 0.125 0.8427437404161939
vt 0.03125 0.0859375
vt 0.08045000000000002 0.03125
vt 0.13397499999999996 0.171875
vt 0.421875 0.3359375
vt 0.502325 0.3359375
vt 0.502325 0.6640625
vt 0.421875 0.6640625
vt 0.1640625 0.984375
vt 0.07579999999999998 0.984375
vt 0.12383749999999993 0.8515625
vt 0.015625 0.16506875958380607
vt 0.030286997564870743 0.0859375
vt 0.13482501916761214 0.17288125958380607
vt 0.5 0.3359375
vt 0.5882625 0.3359375
vt 0.58045 0.6640625
vt 0.5 0.6640625
vt 0.07131842181190728 0.984375
vt 0.0234375 0.9462742418513421
vt 0.12600592181190717 0.8495493052877087
vt 0.0234375 0.22756842181190728
vt 0.015625 0.1640625
vt 0.13482569471229133 0.17288092181190717
vt 0.5859375 0.3359375
vt 0.658575 0.3359375
vt 0.658575 0.6640625
vt 0.5859375 0.6640625
vt 0.0234375 0.9453125
vt 0 0.8837755024351293
vt 0.125 0.8417374808323879
vt 0.0546875 0.2992
vt 0.0234375 0.2265625
vt 0.1328125 0.17303750000000007
vt 0.6640625 0.3359375
vt 0.7367 0.3359375
vt 0.7367 0.6640625
vt 0.6640625 0.6640625
vt 0 0.8828125
vt 0 0.810175
vt 0.125 0.8425875
vt 0.12600625958380607 0.31451251916761214
vt 0.0546875 0.3076630216027414
vt 0.13381875958380607 0.171875
vt 0.7421875 0.3359375
vt 0.846075 0.3359375
vt 0.8382625 0.6640625
vt 0.7421875 0.6640625
vt 0 0.8125
vt 0.022475758148657876 0.7333690781880927
vt 0.12701319471229133 0.8437499999999999
vt 0.20413092181190728 0.29107569471229133
vt 0.125 0.32328743656363346
vt 0.13381842181190717 0.171875
vt 0.841425 0.3359375
vt 0.921875 0.3359375
vt 0.921875 0.6640625
vt 0.841425 0.6640625
vt 0.021424980832387863 0.734375
vt 0.0907744783972586 0.6708687404161939
vt 0.125 0.84375
vt 0.24451250000000002 0.2265625
vt 0.203125 0.2890625
vt 0.13397499999999996 0.171875
vt 0.9273625 0.3359375
vt 1 0.3359375
vt 0.997675 0.6640625
vt 0.9273625 0.6640625
vt 0.09064375 0.6664062499999999
vt 0.15390625000000024 0.66484375
vt 0.12383749999999993 0.8359375
vn 0 -1 0
vn 0.4999999999999999 0 0.8660254037844388
vn 0 1 0
vn 0 -1 0
vn 0.8660254037844388 0 0.5
vn 0 1 0
vn 0 -1 0
vn 1 0 0
vn 0 1 0
vn 0 -1 0
vn 0.8660254037844388 0 -0.5
vn 0 1 0
vn 0 -1 0
vn 0.5000000000000001 0 -0.8660254037844388
vn 0 1 0
vn 0 -1 0
vn 4.143408735633879e-16 0 -1
vn 0 1 0
vn 0 -1 0
vn -0.4999999999999996 0 -0.8660254037844389
vn 0 1 0
vn 0 -1 0
vn -0.8660254037844389 0 -0.4999999999999998
vn 0 1 0
vn 0 -1 0
vn -1 0 -2.0717043678169412e-16
vn 0 1 0
vn 0 -1 0
vn -0.8660254037844389 0 0.4999999999999996
vn 0 1 0
vn 0 -1 0
vn -0.4999999999999999 0 0.8660254037844386
vn 0 1 0
vn 0 -1 0
vn 0 0 1
vn 0 1 0
usemtl m_fde0040a-fbd4-6352-92e1-49ceadb515c7
f 5/1/1 3/2/1 1/3/1
f 3/4/2 5/5/2 6/6/2 4/7/2
f 4/8/3 6/9/3 2/10/3
f 7/11/4 5/12/4 1/13/4
f 5/14/5 7/15/5 8/16/5 6/17/5
f 6/18/6 8/19/6 2/20/6
f 9/21/7 7/22/7 1/23/7
f 7/24/8 9/25/8 10/26/8 8/27/8
f 8/28/9 10/29/9 2/30/9
f 11/31/10 9/32/10 1/33/10
f 9/34/11 11/35/11 12/36/11 10/37/11
f 10/38/12 12/39/12 2/40/12
f 13/41/13 11/42/13 1/43/13
f 11/44/14 13/45/14 14/46/14 12/47/14
f 12/48/15 14/49/15 2/50/15
f 15/51/16 13/52/16 1/53/16
f 13/54/17 15/55/17 16/56/17 14/57/17
f 14/58/18 16/59/18 2/60/18
f 17/61/19 15/62/19 1/63/19
f 15/64/20 17/65/20 18/66/20 16/67/20
f 16/68/21 18/69/21 2/70/21
f 19/71/22 17/72/22 1/73/22
f 17/74/23 19/75/23 20/76/23 18/77/23
f 18/78/24 20/79/24 2/80/24
f 21/81/25 19/82/25 1/83/25
f 19/84/26 21/85/26 22/86/26 20/87/26
f 20/88/27 22/89/27 2/90/27
f 23/91/28 21/92/28 1/93/28
f 21/94/29 23/95/29 24/96/29 22/97/29
f 22/98/30 24/99/30 2/100/30
f 25/101/31 23/102/31 1/103/31
f 23/104/32 25/105/32 26/106/32 24/107/32
f 24/108/33 26/109/33 2/110/33
f 3/111/34 25/112/34 1/113/34
f 25/114/35 3/115/35 4/116/35 26/117/35
f 26/118/36 4/119/36 2/120/36