# Made in Blockbench 4.12.1
mtllib cylinder.mtl

o cylinder
v 0 0 0
v 0 1 0
v 0.13397459621556132 0 0.49999999999999994
v 0.13397459621556132 1 0.49999999999999994
v 0.3660254037844386 0 0.36602540378443865
v 0.3660254037844386 1 0.36602540378443865
v 0.49999999999999994 0 0.13397459621556132
v 0.49999999999999994 1 0.13397459621556132
v 0.49999999999999994 0 -0.13397459621556138
v 0.49999999999999994 1 -0.13397459621556138
v 0.36602540378443865 0 -0.3660254037844386
v 0.36602540378443865 1 -0.3660254037844386
v 0.1339745962155615 0 -0.4999999999999999
v 0.1339745962155615 1 -0.4999999999999999
v -0.13397459621556113 0 -0.5
v -0.13397459621556113 1 -0.5
v -0.3660254037844386 0 -0.3660254037844387
v -0.3660254037844386 1 -0.3660254037844387
v -0.49999999999999994 0 -0.13397459621556126
v -0.49999999999999994 1 -0.13397459621556126
v -0.5 0 0.1339745962155611
v -0.5 1 0.1339745962155611
v -0.3660254037844387 0 0.36602540378443854
v -0.3660254037844387 1 0.36602540378443854
v -0.1339745962155613 0 0.49999999999999994
v -0.1339745962155613 1 0.49999999999999994
vt 0.9467788097902865 0.43584570071070117
vt 0.9658401516399998 0.5882689105217891
vt 0.5199123475609757 0.4380777646520927
vt 0.2469007621951218 0
vt 0.53125 0
vt 0.53125 0.9999668553844843
vt 0.2469007621951218 0.9999668553844843
vt 0.6077237694924118 0.07073162461153759
vt 0.8257431402439025 0.20190772438168114
vt 0.4853914524192415 0.5720016011355904
vt 0.9345482225932382 0.30574409534197655
vt 0.9474880138649555 0.4313815728279179
vt 0.5199123475609757 0.4352038039426944
vt 0.5286204268292684 0.000033144615515734444
vt 0.7817196646341465 0
vt 0.7823865853658538 1
vt 0.5286204268292684 1
vt 0.8340372338243691 0.23144215845115157
vt 1.003125 0.434040702805198
vt 0.4853901301658324 0.5720016011355904
vt 0.8043349847560967 0.18808660321622794
vt 0.9083174542682925 0.29963623075121604
vt 0.5199123475609757 0.44139907579688364
vt 0.7781507621951219 0
vt 1 0
vt 1 1
vt 0.7781507621951219 0.9999668553844843
vt 0.978658536585366 0.4314351423625111
vt 0.978658536585366 0.6612841587912556
vt 0.489329268292683 0.5686802899907999
vt 0.6109946646341464 0.07648561578768309
vt 0.7990991991024604 0.17023009168509717
vt 0.5199123475609757 0.4438276161277874
vt 0 0.000033144615515734444
vt 0.2530992378048782 0.000033144615515734444
vt 0.2530992378048782 1
vt 0 1
vt 0.978658536585366 0.6584101980818571
vt 0.9212572455400101 0.8621699135165022
vt 0.48144834752871324 0.5691276404261922
vt 0.30583079268292684 0.013985615787683092
vt 0.6149324805075883 0.07373787907432883
vt 0.519912347560976 0.44382954618720405
vt 0.24958079268292688 0
vt 0.49509618902439034 0
vt 0.49509618902439034 0.9999668553844843
vt 0.252705792682927 1
vt 0.894787575034189 0.859294987778655
vt 0.6538927431034145 0.99609375
vt 0.489329268292683 0.5691266753977431
vt 0.12233231707317074 0.19255073109901344
vt 0.3149323170731708 0.03630625520159936
vt 0.5244631097560974 0.4380777646520927
vt 0.5288176829268292 0.375
vt 0.75 0.375
vt 0.75 0.9999668553844843
vt 0.4975676829268292 0.9999668553844843
vt 0.6422446646341464 0.9737731105860837
vt 0.29672926829268287 0.9737731105860837
vt 0.48477850609756074 0.5943222405495068
vt 0.06116615853658537 0.41863205097602374
vt 0.11856251485760377 0.19255073109901344
vt 0.5277906238146768 0.44095269038994
vt 0.53125 0
vt 0.790225 0
vt 0.790225 1
vt 0.53125 1
vt 0.2791855292880761 0.9737731105860837
vt 0.09174923780487806 0.8649176502298564
vt 0.49326708416612447 0.5885704590143953
vt 0.09174923780487806 0.5971962012589052
vt 0.06116615853658537 0.41575712523817643
vt 0.5277932683249454 0.44095172536149085
vt 0.7469007621951218 0.000033144615515734444
vt 1 0.000033144615515734444
vt 1 1
vt 0.7469007621951218 1
vt 0.09174923780487806 0.8621699135165022
vt 0 0.686356136459155
vt 0.489329268292683 0.5662517496598957
vt 0.2140815548780488 0.801850617564335
vt 0.09174923780487806 0.5943222405495068
vt 0.5199123475609757 0.44139907579688364
vt 0.0906507621951218 0
vt 0.34375 0
vt 0.34375 0.9999668553844843
vt 0.0906507621951218 0.9999668553844843
vt 0 0.6836047982051718
vt 0 0.47607642119034366
vt 0.489329268292683 0.5686802899907999
vt 0.49326840641953357 0.8455991255782808
vt 0.2140815548780488 0.8260298244183476
vt 0.5238514856878262 0.4380777646520927
vt 0.7495684451219512 0
vt 1 0
vt 1 1
vt 0.7495684451219512 0.9999668553844843
vt 0 0.4827190434799252
vt 0.08798437031364853 0.25663868863136385
vt 0.4972101890566527 0.5720016011355902
vt 0.7990978768490518 0.7786391373959485
vt 0.489329268292683 0.8706694317649679
vt 0.5238501634344171 0.4380777646520927
vt 0.40625 0
vt 0.6586823170731708 0
vt 0.6586823170731708 1
vt 0.40625 0.9999668553844843
vt 0.08387096155117689 0.25951264934076235
vt 0.35534887275024407 0.07807260829158458
vt 0.489329268292683 0.5720016011355904
vt 0.9571769817073172 0.5943222405495068
vt 0.7951600609756099 0.7728873558608371
vt 0.5244631097560974 0.4380777646520927
vt 0.65625 0.000033144615515734444
vt 0.9093492378048782 0.000033144615515734444
vt 0.9002477134146343 1
vt 0.65625 1
vt 0.354837118902439 0.0653230864396902
vt 0.6024866615853669 0.06085895855690715
vt 0.48477850609756074 0.5496809617216741
vn 0 -1 0
vn 0.4999999999999999 0 0.8660254037844388
vn 0 1 0
vn 0 -1 0
vn 0.8660254037844388 0 0.5
vn 0 1 0
vn 0 -1 0
vn 1 0 0
vn 0 1 0
vn 0 -1 0
vn 0.8660254037844388 0 -0.5
vn 0 1 0
vn 0 -1 0
vn 0.5000000000000001 0 -0.8660254037844388
vn 0 1 0
vn 0 -1 0
vn 4.143408735633879e-16 0 -1
vn 0 1 0
vn 0 -1 0
vn -0.4999999999999996 0 -0.8660254037844389
vn 0 1 0
vn 0 -1 0
vn -0.8660254037844389 0 -0.4999999999999998
vn 0 1 0
vn 0 -1 0
vn -1 0 -2.0717043678169412e-16
vn 0 1 0
vn 0 -1 0
vn -0.8660254037844389 0 0.4999999999999996
vn 0 1 0
vn 0 -1 0
vn -0.4999999999999999 0 0.8660254037844386
vn 0 1 0
vn 0 -1 0
vn 0 0 1
vn 0 1 0
usemtl m_e2810e78-be1e-35c7-a20a-dce64d3c19c4
f 5/1/1 3/2/1 1/3/1
f 3/4/2 5/5/2 6/6/2 4/7/2
f 4/8/3 6/9/3 2/10/3
f 7/11/4 5/12/4 1/13/4
f 5/14/5 7/15/5 8/16/5 6/17/5
f 6/18/6 8/19/6 2/20/6
f 9/21/7 7/22/7 1/23/7
f 7/24/8 9/25/8 10/26/8 8/27/8
f 8/28/9 10/29/9 2/30/9
f 11/31/10 9/32/10 1/33/10
f 9/34/11 11/35/11 12/36/11 10/37/11
f 10/38/12 12/39/12 2/40/12
f 13/41/13 11/42/13 1/43/13
f 11/44/14 13/45/14 14/46/14 12/47/14
f 12/48/15 14/49/15 2/50/15
f 15/51/16 13/52/16 1/53/16
f 13/54/17 15/55/17 16/56/17 14/57/17
f 14/58/18 16/59/18 2/60/18
f 17/61/19 15/62/19 1/63/19
f 15/64/20 17/65/20 18/66/20 16/67/20
f 16/68/21 18/69/21 2/70/21
f 19/71/22 17/72/22 1/73/22
f 17/74/23 19/75/23 20/76/23 18/77/23
f 18/78/24 20/79/24 2/80/24
f 21/81/25 19/82/25 1/83/25
f 19/84/26 21/85/26 22/86/26 20/87/26
f 20/88/27 22/89/27 2/90/27
f 23/91/28 21/92/28 1/93/28
f 21/94/29 23/95/29 24/96/29 22/97/29
f 22/98/30 24/99/30 2/100/30
f 25/101/31 23/102/31 1/103/31
f 23/104/32 25/105/32 26/106/32 24/107/32
f 24/108/33 26/109/33 2/110/33
f 3/111/34 25/112/34 1/113/34
f 25/114/35 3/115/35 4/116/35 26/117/35
f 26/118/36 4/119/36 2/120/36