{"asset":{"version":"2.0","generator":"Blockbench 4.12.5 glTF exporter"},"scenes":[{"nodes":[16],"name":"blockbench_export"}],"scene":0,"nodes":[{"rotation":[0,0,0.21643961393810288,0.9762960071199334],"translation":[0,0.84375,1.6875],"name":"Crystal3"},{"rotation":[0,0.1950903220161282,0,0.9807852804032304],"translation":[0,0.84375,1.6875],"name":"Cryatla1"},{"rotation":[0.04352599490870104,-0.019667100265231517,0.062376072978764165,0.9969091826511143],"translation":[-0.140625,0,0.28125],"name":"Cystal3"},{"rotation":[0.18996105986441036,0.046834958376919825,0.21125884501943296,0.9576486739979736],"translation":[-0.84375,0.703125,-0.140625],"name":"Crystal2"},{"rotation":[0,0,0.02181488503456112,0.9997620270799091],"translation":[-0.28125,-0.84375,0],"name":"LowerLeftArm"},{"rotation":[0.08696913561223897,0.005700258306074202,-0.06515425057767778,0.9940617687738348],"translation":[-1.546875,0.421875,0.421875],"name":"LeftArm","children":[2,3,4]},{"rotation":[0.1082198069690518,-0.9881480035599666,-0.1082198069690518,0.011851996440033421],"translation":[0.421875,-0.5625,0],"name":"LowerRightArm"},{"translation":[1.40625,0.421875,0.421875],"name":"RightArm","children":[6]},{"translation":[0,-0.28125,-0.140625],"name":"h_jaw"},{"translation":[0,0,-0.28125],"name":"h_head","children":[8]},{"translation":[0,2.671875,0],"name":"Body","children":[0,1,5,7,9]},{"translation":[0,-0.421875,0],"name":"RightLeg4"},{"translation":[-0.5625,0.984375,0.28125],"name":"LeftLeg","children":[11]},{"translation":[0,-0.421875,0],"name":"RightLeg2"},{"translation":[0.421875,0.984375,0.28125],"name":"RightLeg","children":[13]},{"name":"Rocky","children":[10,12,14]},{"name":"Rocky","mesh":0,"children":[15],"skin":0}],"bufferViews":[{"buffer":0,"byteOffset":0,"byteLength":23328,"target":34962,"byteStride":12},{"buffer":0,"byteOffset":23328,"byteLength":23328,"target":34962,"byteStride":12},{"buffer":0,"byteOffset":46656,"byteLength":15552,"target":34962,"byteStride":8},{"buffer":0,"byteOffset":62208,"byteLength":15552,"target":34962,"byteStride":8},{"buffer":0,"byteOffset":77760,"byteLength":31104,"target":34962,"byteStride":16},{"buffer":0,"byteOffset":108864,"byteLength":5832,"target":34963},{"buffer":0,"byteOffset":114696,"byteLength":1024},{"buffer":0,"byteOffset":115720,"byteLength":32},{"buffer":0,"byteOffset":115752,"byteLength":128},{"buffer":0,"byteOffset":115880,"byteLength":4},{"buffer":0,"byteOffset":115884,"byteLength":16},{"buffer":0,"byteOffset":115900,"byteLength":12},{"buffer":0,"byteOffset":115912,"byteLength":36},{"buffer":0,"byteOffset":115948,"byteLength":28},{"buffer":0,"byteOffset":115976,"byteLength":112},{"buffer":0,"byteOffset":116088,"byteLength":20},{"buffer":0,"byteOffset":116108,"byteLength":80},{"buffer":0,"byteOffset":116188,"byteLength":12},{"buffer":0,"byteOffset":116200,"byteLength":48},{"buffer":0,"byteOffset":116248,"byteLength":16},{"buffer":0,"byteOffset":116264,"byteLength":64},{"buffer":0,"byteOffset":116328,"byteLength":12},{"buffer":0,"byteOffset":116340,"byteLength":36},{"buffer":0,"byteOffset":116376,"byteLength":44},{"buffer":0,"byteOffset":116420,"byteLength":176},{"buffer":0,"byteOffset":116596,"byteLength":44},{"buffer":0,"byteOffset":116640,"byteLength":132},{"buffer":0,"byteOffset":116772,"byteLength":16},{"buffer":0,"byteOffset":116788,"byteLength":64},{"buffer":0,"byteOffset":116852,"byteLength":12},{"buffer":0,"byteOffset":116864,"byteLength":48},{"buffer":0,"byteOffset":116912,"byteLength":12},{"buffer":0,"byteOffset":116924,"byteLength":48},{"buffer":0,"byteOffset":116972,"byteLength":12},{"buffer":0,"byteOffset":116984,"byteLength":48},{"buffer":0,"byteOffset":117032,"byteLength":4},{"buffer":0,"byteOffset":117036,"byteLength":12},{"buffer":0,"byteOffset":117048,"byteLength":16},{"buffer":0,"byteOffset":117064,"byteLength":64},{"buffer":0,"byteOffset":117128,"byteLength":12},{"buffer":0,"byteOffset":117140,"byteLength":48},{"buffer":0,"byteOffset":117188,"byteLength":12},{"buffer":0,"byteOffset":117200,"byteLength":48},{"buffer":0,"byteOffset":117248,"byteLength":28},{"buffer":0,"byteOffset":117276,"byteLength":84},{"buffer":0,"byteOffset":117360,"byteLength":12},{"buffer":0,"byteOffset":117372,"byteLength":48},{"buffer":0,"byteOffset":117420,"byteLength":28},{"buffer":0,"byteOffset":117448,"byteLength":112},{"buffer":0,"byteOffset":117560,"byteLength":28},{"buffer":0,"byteOffset":117588,"byteLength":112},{"buffer":0,"byteOffset":117700,"byteLength":12},{"buffer":0,"byteOffset":117712,"byteLength":48},{"buffer":0,"byteOffset":117760,"byteLength":12},{"buffer":0,"byteOffset":117772,"byteLength":48},{"buffer":0,"byteOffset":117820,"byteLength":12},{"buffer":0,"byteOffset":117832,"byteLength":36},{"buffer":0,"byteOffset":117868,"byteLength":12},{"buffer":0,"byteOffset":117880,"byteLength":48},{"buffer":0,"byteOffset":117928,"byteLength":8},{"buffer":0,"byteOffset":117936,"byteLength":24},{"buffer":0,"byteOffset":117960,"byteLength":12},{"buffer":0,"byteOffset":117972,"byteLength":48},{"buffer":0,"byteOffset":118020,"byteLength":12},{"buffer":0,"byteOffset":118032,"byteLength":36},{"buffer":0,"byteOffset":118068,"byteLength":12},{"buffer":0,"byteOffset":118080,"byteLength":48},{"buffer":0,"byteOffset":118128,"byteLength":12},{"buffer":0,"byteOffset":118140,"byteLength":36},{"buffer":0,"byteOffset":118176,"byteLength":12},{"buffer":0,"byteOffset":118188,"byteLength":48},{"buffer":0,"byteOffset":118236,"byteLength":12},{"buffer":0,"byteOffset":118248,"byteLength":36},{"buffer":0,"byteOffset":118284,"byteLength":32},{"buffer":0,"byteOffset":118316,"byteLength":128},{"buffer":0,"byteOffset":118444,"byteLength":12},{"buffer":0,"byteOffset":118456,"byteLength":36},{"buffer":0,"byteOffset":118492,"byteLength":20},{"buffer":0,"byteOffset":118512,"byteLength":80},{"buffer":0,"byteOffset":118592,"byteLength":8},{"buffer":0,"byteOffset":118600,"byteLength":24},{"buffer":0,"byteOffset":118624,"byteLength":20},{"buffer":0,"byteOffset":118644,"byteLength":80},{"buffer":0,"byteOffset":118724,"byteLength":4},{"buffer":0,"byteOffset":118728,"byteLength":12},{"buffer":0,"byteOffset":118740,"byteLength":28},{"buffer":0,"byteOffset":118768,"byteLength":112},{"buffer":0,"byteOffset":118880,"byteLength":4},{"buffer":0,"byteOffset":118884,"byteLength":12},{"buffer":0,"byteOffset":118896,"byteLength":24},{"buffer":0,"byteOffset":118920,"byteLength":96},{"buffer":0,"byteOffset":119016,"byteLength":8},{"buffer":0,"byteOffset":119024,"byteLength":24}],"buffers":[{"byteLength":119048,"uri":"data:application/octet-stream;base64,"}],"accessors":[{"bufferView":0,"componentType":5126,"count":1944,"max":[2.6737232208251953,5.420917987823486,2.4494307041168213],"min":[-2.9267749786376953,0.00028124998789280653,-1.125],"type":"VEC3"},{"bufferView":1,"componentType":5126,"count":1944,"max":[1,1,1],"min":[-1,-1,-1],"type":"VEC3"},{"bufferView":2,"componentType":5126,"count":1944,"max":[0.84375,0.8125],"min":[0,0],"type":"VEC2"},{"bufferView":3,"componentType":5123,"count":1944,"max":[0,15,0,0],"min":[0,1,0,0],"type":"VEC4"},{"bufferView":4,"componentType":5126,"count":1944,"max":[0,1,0,0],"min":[0,1,0,0],"type":"VEC4"},{"bufferView":5,"componentType":5123,"count":2916,"max":[1943],"min":[0],"type":"SCALAR"},{"bufferView":6,"componentType":5126,"count":16,"max":[1,0.13052618503570557,0.3826834261417389,0,0.4226182699203491,1,0.21130913496017456,0,0.042883843183517456,0.5309303998947144,1,0,2.3326539993286133,0,1.9522602558135986,1],"min":[-0.9762960076332092,-0.4226182699203491,-0.04684610664844513,0,-0.2164396196603775,0.801873505115509,-0.5181198120117188,0,-0.3826834261417389,0,-0.9762960076332092,0,-1.4857673645019531,-3.9907870292663574,-1.6875,1],"type":"MAT4"},{"bufferView":7,"componentType":5126,"count":8,"max":[4.71999979019165],"min":[0],"type":"SCALAR"},{"bufferView":8,"componentType":5126,"count":8,"max":[0,0,0,1],"min":[-0.08715574443340302,0,0,0.9961947202682495],"type":"VEC4"},{"bufferView":9,"componentType":5126,"count":1,"max":[0],"min":[0],"type":"SCALAR"},{"bufferView":10,"componentType":5126,"count":1,"max":[0,0,0,1],"min":[0,0,0,1],"type":"VEC4"},{"bufferView":11,"componentType":5126,"count":3,"max":[4.71999979019165],"min":[0],"type":"SCALAR"},{"bufferView":12,"componentType":5126,"count":3,"max":[0,2.671875,0],"min":[0,2.609375,0],"type":"VEC3"},{"bufferView":13,"componentType":5126,"count":7,"max":[4.71999979019165],"min":[0],"type":"SCALAR"},{"bufferView":14,"componentType":5126,"count":7,"max":[0.08715574443340302,0.008504336699843407,-0.06515424698591232,0.9940617680549622],"min":[0.02237228862941265,6.938893903907228e-18,-0.13002949953079224,0.9876720905303955],"type":"VEC4"},{"bufferView":15,"componentType":5126,"count":5,"max":[4.71999979019165],"min":[0],"type":"SCALAR"},{"bufferView":16,"componentType":5126,"count":5,"max":[0,0,0.09401075541973114,1],"min":[-0.06913121044635773,-0.16002172231674194,0,0.9801917672157288],"type":"VEC4"},{"bufferView":17,"componentType":5126,"count":3,"max":[1.7200000286102295],"min":[0],"type":"SCALAR"},{"bufferView":18,"componentType":5126,"count":3,"max":[0,0,0,1],"min":[-0.44228869676589966,0,0,0.8968727588653564],"type":"VEC4"},{"bufferView":19,"componentType":5126,"count":4,"max":[2.1600000858306885],"min":[0],"type":"SCALAR"},{"bufferView":20,"componentType":5126,"count":4,"max":[0,0.3420201539993286,0,1],"min":[0,-0.4617486000061035,0,0.8870108127593994],"type":"VEC4"},{"bufferView":21,"componentType":5126,"count":3,"max":[2.1600000858306885],"min":[0],"type":"SCALAR"},{"bufferView":22,"componentType":5126,"count":3,"max":[0,2.671875,0],"min":[0,2.609375,0],"type":"VEC3"},{"bufferView":23,"componentType":5126,"count":11,"max":[2.119999885559082],"min":[0],"type":"SCALAR"},{"bufferView":24,"componentType":5126,"count":11,"max":[0.9246075749397278,0.489178329706192,0.019152887165546417,0.9940617680549622],"min":[0.08696913719177246,0.0057002585381269455,-0.149509459733963,-0.3742852807044983],"type":"VEC4"},{"bufferView":25,"componentType":5126,"count":11,"max":[2.119999885559082],"min":[0],"type":"SCALAR"},{"bufferView":26,"componentType":5126,"count":11,"max":[-1.546875,0.421875,0.421875],"min":[-1.546875,0.421875,-0.078125],"type":"VEC3"},{"bufferView":27,"componentType":5126,"count":4,"max":[2.119999885559082],"min":[0],"type":"SCALAR"},{"bufferView":28,"componentType":5126,"count":4,"max":[0.021794121712446213,0,0.02181488461792469,0.9997619986534119],"min":[0,-0.0009515519486740232,-0.1736481785774231,0.9848077297210693],"type":"VEC4"},{"bufferView":29,"componentType":5126,"count":3,"max":[1.2000000476837158],"min":[0],"type":"SCALAR"},{"bufferView":30,"componentType":5126,"count":3,"max":[0,0.5187732577323914,0,1],"min":[0,0,0,0.8549118638038635],"type":"VEC4"},{"bufferView":31,"componentType":5126,"count":3,"max":[1.2000000476837158],"min":[0],"type":"SCALAR"},{"bufferView":32,"componentType":5126,"count":3,"max":[0.2164396196603775,0,0,1],"min":[0,0,0,0.9762960076332092],"type":"VEC4"},{"bufferView":33,"componentType":5126,"count":3,"max":[2.1600000858306885],"min":[0],"type":"SCALAR"},{"bufferView":34,"componentType":5126,"count":3,"max":[0,0,0.05034414678812027,1],"min":[-0.13238732516765594,-0.31240683794021606,0,0.9393301010131836],"type":"VEC4"},{"bufferView":35,"componentType":5126,"count":1,"max":[0],"min":[0],"type":"SCALAR"},{"bufferView":36,"componentType":5126,"count":1,"max":[0,-0.421875,0],"min":[0,-0.421875,0],"type":"VEC3"},{"bufferView":37,"componentType":5126,"count":4,"max":[2.1600000858306885],"min":[0],"type":"SCALAR"},{"bufferView":38,"componentType":5126,"count":4,"max":[0.29613739252090454,0.052217014133930206,0.16561120748519897,1],"min":[-0.44228869676589966,0,0,0.8968727588653564],"type":"VEC4"},{"bufferView":39,"componentType":5126,"count":3,"max":[2.1600000858306885],"min":[0],"type":"SCALAR"},{"bufferView":40,"componentType":5126,"count":3,"max":[0.10821980983018875,-0.9881479740142822,-0.10821980983018875,0.011851996183395386],"min":[0.10821980983018875,-0.9881479740142822,-0.10821980983018875,0.011851996183395386],"type":"VEC4"},{"bufferView":41,"componentType":5126,"count":3,"max":[2.1600000858306885],"min":[0.8399999737739563],"type":"SCALAR"},{"bufferView":42,"componentType":5126,"count":3,"max":[0,0,0,1],"min":[-0.1736481785774231,0,0,0.9848077297210693],"type":"VEC4"},{"bufferView":43,"componentType":5126,"count":7,"max":[3.0399999618530273],"min":[0],"type":"SCALAR"},{"bufferView":44,"componentType":5126,"count":7,"max":[0,2.671875,0],"min":[0,2.609375,0],"type":"VEC3"},{"bufferView":45,"componentType":5126,"count":3,"max":[3.0399999618530273],"min":[0],"type":"SCALAR"},{"bufferView":46,"componentType":5126,"count":3,"max":[0.08713500201702118,0.0057002585381269455,-0.06515424698591232,0.9940617680549622],"min":[0.08696913719177246,-0.0019012924749404192,-0.1515445113182068,0.9846004843711853],"type":"VEC4"},{"bufferView":47,"componentType":5126,"count":7,"max":[3.0399999618530273],"min":[0],"type":"SCALAR"},{"bufferView":48,"componentType":5126,"count":7,"max":[0.36243805289268494,0,0,1],"min":[-0.36243805289268494,0,0,0.9320078492164612],"type":"VEC4"},{"bufferView":49,"componentType":5126,"count":7,"max":[3.0399999618530273],"min":[0],"type":"SCALAR"},{"bufferView":50,"componentType":5126,"count":7,"max":[0.36243805289268494,0,0,1],"min":[-0.36243805289268494,0,0,0.9320078492164612],"type":"VEC4"},{"bufferView":51,"componentType":5126,"count":3,"max":[3.0399999618530273],"min":[0],"type":"SCALAR"},{"bufferView":52,"componentType":5126,"count":3,"max":[0,0,0.13052618503570557,1],"min":[0,0,0,0.9914448857307434],"type":"VEC4"},{"bufferView":53,"componentType":5126,"count":3,"max":[1.1200000047683716],"min":[0],"type":"SCALAR"},{"bufferView":54,"componentType":5126,"count":3,"max":[0,0,0,1],"min":[-0.6755902171134949,0,0,0.7372773289680481],"type":"VEC4"},{"bufferView":55,"componentType":5126,"count":3,"max":[1.159999966621399],"min":[0],"type":"SCALAR"},{"bufferView":56,"componentType":5126,"count":3,"max":[0,2.671875,0],"min":[0,1.359375,-0.625],"type":"VEC3"},{"bufferView":57,"componentType":5126,"count":3,"max":[1.159999966621399],"min":[0],"type":"SCALAR"},{"bufferView":58,"componentType":5126,"count":3,"max":[0.6741437315940857,0.0057002585381269455,-0.055160440504550934,0.9940617680549622],"min":[0.08696913719177246,-0.035141076892614365,-0.06515424698591232,0.7356987595558167],"type":"VEC4"},{"bufferView":59,"componentType":5126,"count":2,"max":[1.159999966621399],"min":[0],"type":"SCALAR"},{"bufferView":60,"componentType":5126,"count":2,"max":[-1.546875,0.421875,0.421875],"min":[-1.546875,-0.390625,0.421875],"type":"VEC3"},{"bufferView":61,"componentType":5126,"count":3,"max":[1.1200000047683716],"min":[0],"type":"SCALAR"},{"bufferView":62,"componentType":5126,"count":3,"max":[0,0,0,1],"min":[-0.8191520571708679,0,0,0.5735764503479004],"type":"VEC4"},{"bufferView":63,"componentType":5126,"count":3,"max":[1.1200000047683716],"min":[0],"type":"SCALAR"},{"bufferView":64,"componentType":5126,"count":3,"max":[-0.5625,0.984375,0.53125],"min":[-0.5625,0.796875,0.28125],"type":"VEC3"},{"bufferView":65,"componentType":5126,"count":3,"max":[1.0399999618530273],"min":[0.4000000059604645],"type":"SCALAR"},{"bufferView":66,"componentType":5126,"count":3,"max":[0,0,0,1],"min":[-0.8191520571708679,0,0,0.5735764503479004],"type":"VEC4"},{"bufferView":67,"componentType":5126,"count":3,"max":[1.0399999618530273],"min":[0.4000000059604645],"type":"SCALAR"},{"bufferView":68,"componentType":5126,"count":3,"max":[0.421875,0.984375,0.53125],"min":[0.421875,0.796875,0.28125],"type":"VEC3"},{"bufferView":69,"componentType":5126,"count":3,"max":[1.0800000429153442],"min":[0.23999999463558197],"type":"SCALAR"},{"bufferView":70,"componentType":5126,"count":3,"max":[0,0,0,1],"min":[-0.4226182699203491,0,0,0.9063078165054321],"type":"VEC4"},{"bufferView":71,"componentType":5126,"count":3,"max":[1.0800000429153442],"min":[0.23999999463558197],"type":"SCALAR"},{"bufferView":72,"componentType":5126,"count":3,"max":[1.90625,0.421875,0.421875],"min":[1.40625,-0.203125,-0.453125],"type":"VEC3"},{"bufferView":73,"componentType":5126,"count":8,"max":[1.8799999952316284],"min":[0],"type":"SCALAR"},{"bufferView":74,"componentType":5126,"count":8,"max":[0,0.08614138513803482,0.013258426450192928,1],"min":[-0.15212339162826538,-0.12900707125663757,-0.019856086000800133,0.9799059629440308],"type":"VEC4"},{"bufferView":75,"componentType":5126,"count":3,"max":[1.440000057220459],"min":[0],"type":"SCALAR"},{"bufferView":76,"componentType":5126,"count":3,"max":[0,2.671875,0],"min":[0,2.671875,0],"type":"VEC3"},{"bufferView":77,"componentType":5126,"count":5,"max":[2.1600000858306885],"min":[0],"type":"SCALAR"},{"bufferView":78,"componentType":5126,"count":5,"max":[0.08696913719177246,0.042040321975946426,-0.05010170489549637,0.9940617680549622],"min":[-0.4989294707775116,0.0057002585381269455,-0.06515424698591232,0.8641711473464966],"type":"VEC4"},{"bufferView":79,"componentType":5126,"count":2,"max":[0.6800000071525574],"min":[0],"type":"SCALAR"},{"bufferView":80,"componentType":5126,"count":2,"max":[-1.546875,0.421875,0.421875],"min":[-1.546875,0.421875,0.421875],"type":"VEC3"},{"bufferView":81,"componentType":5126,"count":5,"max":[2.1600000858306885],"min":[0],"type":"SCALAR"},{"bufferView":82,"componentType":5126,"count":5,"max":[0,0,0,1],"min":[-0.4617486000061035,0,0,0.8870108127593994],"type":"VEC4"},{"bufferView":83,"componentType":5126,"count":1,"max":[0],"min":[0],"type":"SCALAR"},{"bufferView":84,"componentType":5126,"count":1,"max":[1.40625,0.421875,0.421875],"min":[1.40625,0.421875,0.421875],"type":"VEC3"},{"bufferView":85,"componentType":5126,"count":7,"max":[2.200000047683716],"min":[0],"type":"SCALAR"},{"bufferView":86,"componentType":5126,"count":7,"max":[0.1736481785774231,0.1285432130098343,0.015134436078369617,1],"min":[0,-0.0858316496014595,-0.022665634751319885,0.9763826131820679],"type":"VEC4"},{"bufferView":87,"componentType":5126,"count":1,"max":[0],"min":[0],"type":"SCALAR"},{"bufferView":88,"componentType":5126,"count":1,"max":[0,0,-0.28125],"min":[0,0,-0.28125],"type":"VEC3"},{"bufferView":89,"componentType":5126,"count":6,"max":[1.7999999523162842],"min":[0],"type":"SCALAR"},{"bufferView":90,"componentType":5126,"count":6,"max":[0,0,0,1],"min":[-0.5187732577323914,0,0,0.8549118638038635],"type":"VEC4"},{"bufferView":91,"componentType":5126,"count":2,"max":[0.7200000286102295],"min":[0],"type":"SCALAR"},{"bufferView":92,"componentType":5126,"count":2,"max":[0,-0.28125,-0.140625],"min":[0,-0.28125,-0.140625],"type":"VEC3"}],"materials":[{"pbrMetallicRoughness":{"metallicFactor":0,"roughnessFactor":1,"baseColorTexture":{"index":0}},"alphaMode":"MASK","alphaCutoff":0.05,"doubleSided":true}],"textures":[{"sampler":0,"source":0,"name":"Rocky.png"}],"samplers":[{"magFilter":9728,"minFilter":9728,"wrapS":33071,"wrapT":33071}],"images":[{"mimeType":"image/png","uri":"data:image/png;base64,"}],"meshes":[{"primitives":[{"mode":4,"attributes":{"POSITION":0,"NORMAL":1,"TEXCOORD_0":2,"JOINTS_0":3,"WEIGHTS_0":4},"indices":5,"material":0}]}],"skins":[{"inverseBindMatrices":6,"joints":[15,10,0,1,5,2,3,4,7,6,9,8,12,11,14,13],"skeleton":15}],"animations":[{"name":"idle","samplers":[{"input":7,"output":8,"interpolation":"LINEAR"},{"input":9,"output":10,"interpolation":"LINEAR"},{"input":11,"output":12,"interpolation":"LINEAR"},{"input":13,"output":14,"interpolation":"LINEAR"},{"input":15,"output":16,"interpolation":"LINEAR"}],"channels":[{"sampler":0,"target":{"node":8,"path":"rotation"}},{"sampler":1,"target":{"node":10,"path":"rotation"}},{"sampler":2,"target":{"node":10,"path":"translation"}},{"sampler":3,"target":{"node":5,"path":"rotation"}},{"sampler":4,"target":{"node":7,"path":"rotation"}}]},{"name":"punch","samplers":[{"input":17,"output":18,"interpolation":"LINEAR"},{"input":19,"output":20,"interpolation":"LINEAR"},{"input":21,"output":22,"interpolation":"LINEAR"},{"input":23,"output":24,"interpolation":"LINEAR"},{"input":25,"output":26,"interpolation":"LINEAR"},{"input":27,"output":28,"interpolation":"LINEAR"},{"input":29,"output":30,"interpolation":"LINEAR"},{"input":31,"output":32,"interpolation":"LINEAR"},{"input":33,"output":34,"interpolation":"LINEAR"},{"input":35,"output":36,"interpolation":"LINEAR"},{"input":37,"output":38,"interpolation":"LINEAR"},{"input":39,"output":40,"interpolation":"LINEAR"}],"channels":[{"sampler":0,"target":{"node":8,"path":"rotation"}},{"sampler":1,"target":{"node":10,"path":"rotation"}},{"sampler":2,"target":{"node":10,"path":"translation"}},{"sampler":3,"target":{"node":5,"path":"rotation"}},{"sampler":4,"target":{"node":5,"path":"translation"}},{"sampler":5,"target":{"node":4,"path":"rotation"}},{"sampler":6,"target":{"node":12,"path":"rotation"}},{"sampler":7,"target":{"node":14,"path":"rotation"}},{"sampler":8,"target":{"node":13,"path":"rotation"}},{"sampler":9,"target":{"node":13,"path":"translation"}},{"sampler":10,"target":{"node":7,"path":"rotation"}},{"sampler":11,"target":{"node":6,"path":"rotation"}}]},{"name":"walk","samplers":[{"input":41,"output":42,"interpolation":"LINEAR"},{"input":43,"output":44,"interpolation":"LINEAR"},{"input":45,"output":46,"interpolation":"LINEAR"},{"input":47,"output":48,"interpolation":"LINEAR"},{"input":49,"output":50,"interpolation":"LINEAR"},{"input":51,"output":52,"interpolation":"LINEAR"}],"channels":[{"sampler":0,"target":{"node":8,"path":"rotation"}},{"sampler":1,"target":{"node":10,"path":"translation"}},{"sampler":2,"target":{"node":5,"path":"rotation"}},{"sampler":3,"target":{"node":12,"path":"rotation"}},{"sampler":4,"target":{"node":14,"path":"rotation"}},{"sampler":5,"target":{"node":7,"path":"rotation"}}]},{"name":"death","samplers":[{"input":53,"output":54,"interpolation":"LINEAR"},{"input":55,"output":56,"interpolation":"LINEAR"},{"input":57,"output":58,"interpolation":"LINEAR"},{"input":59,"output":60,"interpolation":"LINEAR"},{"input":61,"output":62,"interpolation":"LINEAR"},{"input":63,"output":64,"interpolation":"LINEAR"},{"input":65,"output":66,"interpolation":"LINEAR"},{"input":67,"output":68,"interpolation":"LINEAR"},{"input":69,"output":70,"interpolation":"LINEAR"},{"input":71,"output":72,"interpolation":"LINEAR"}],"channels":[{"sampler":0,"target":{"node":10,"path":"rotation"}},{"sampler":1,"target":{"node":10,"path":"translation"}},{"sampler":2,"target":{"node":5,"path":"rotation"}},{"sampler":3,"target":{"node":5,"path":"translation"}},{"sampler":4,"target":{"node":12,"path":"rotation"}},{"sampler":5,"target":{"node":12,"path":"translation"}},{"sampler":6,"target":{"node":14,"path":"rotation"}},{"sampler":7,"target":{"node":14,"path":"translation"}},{"sampler":8,"target":{"node":7,"path":"rotation"}},{"sampler":9,"target":{"node":7,"path":"translation"}}]},{"name":"rage","samplers":[{"input":73,"output":74,"interpolation":"LINEAR"},{"input":75,"output":76,"interpolation":"LINEAR"},{"input":77,"output":78,"interpolation":"LINEAR"},{"input":79,"output":80,"interpolation":"LINEAR"},{"input":81,"output":82,"interpolation":"LINEAR"},{"input":83,"output":84,"interpolation":"LINEAR"},{"input":85,"output":86,"interpolation":"LINEAR"},{"input":87,"output":88,"interpolation":"LINEAR"},{"input":89,"output":90,"interpolation":"LINEAR"},{"input":91,"output":92,"interpolation":"LINEAR"}],"channels":[{"sampler":0,"target":{"node":10,"path":"rotation"}},{"sampler":1,"target":{"node":10,"path":"translation"}},{"sampler":2,"target":{"node":5,"path":"rotation"}},{"sampler":3,"target":{"node":5,"path":"translation"}},{"sampler":4,"target":{"node":7,"path":"rotation"}},{"sampler":5,"target":{"node":7,"path":"translation"}},{"sampler":6,"target":{"node":9,"path":"rotation"}},{"sampler":7,"target":{"node":9,"path":"translation"}},{"sampler":8,"target":{"node":8,"path":"rotation"}},{"sampler":9,"target":{"node":8,"path":"translation"}}]}]}