# Made in Blockbench 4.10.4
mtllib stairs.mtl

o cube
v 0.5 0.5 0.5
v 0.5 0.5 -0.5
v 0.5 0 0.5
v 0.5 0 -0.5
v -0.5 0.5 -0.5
v -0.5 0.5 0.5
v -0.5 0 -0.5
v -0.5 0 0.5
v 0.5 1 0
v 0.5 1 -0.5
v 0.5 0.5 0
v 0.5 0.5 -0.5
v -0.5 1 -0.5
v -0.5 1 0
v -0.5 0.5 -0.5
v -0.5 0.5 0
vt 0 0.66640625
vt 0.25 0.66640625
vt 0.25 0.3359375
vt 0 0.3359375
vt 0.7500000000000004 0.665625
vt 1 0.665625
vt 1 0.3359375
vt 0.7500000000000004 0.3359375
vt 0.5007812500000003 0.66640625
vt 0.7507812499999998 0.66640625
vt 0.7507812499999998 0.3359375
vt 0.5007812500000003 0.3359375
vt 0.25 0.66640625
vt 0.5 0.66640625
vt 0.5 0.3359375
vt 0.25 0.3359375
vt 0 1
vt 0.25 1
vt 0.25 0.66796875
vt 0 0.66796875
vt 0 0.3359375
vt 0.25 0.3359375
vt 0.25 0
vt 0 0
vn 0 0 -1
vn 1 0 0
vn 0 0 1
vn -1 0 0
vn 0 1 0
vn 0 -1 0
usemtl m_38d8535d-abfa-d0ba-f579-da99b4982dd5
f 4/4/1 7/3/1 13/2/1 10/1/1
f 8/12/3 3/11/3 1/10/3 6/9/3
f 3/8/2 4/7/2 2/6/2 1/5/2
f 11/8/2 12/7/2 10/6/2 9/5/2
f 7/16/4 8/15/4 6/14/4 5/13/4
f 15/16/4 16/15/4 14/14/4 13/13/4
f 7/24/6 4/23/6 3/22/6 8/21/6
f 15/24/6 12/23/6 11/22/6 16/21/6
f 6/20/5 1/19/5 11/18/5 16/17/5
f 14/20/5 9/19/5 10/18/5 13/17/5
f 16/12/3 11/11/3 9/10/3 14/9/3
